PathFileType	4	(X/Y/Z)	./resultDataOpenSim/trcMotMarkerGrf/sub09/qtm-05-03.trc
DataRate	CameraRate	NumFrames	NumMarkers	Units	OrigDataRate	OrigDataStartFrame	OrigNumFrames
250.000000	250.000000	12	24	m	250.000000	1	511
Frame#	Time	L.Toe.Tip			R.Toe.Tip			L.Ankle.Lat			R.Ankle.Lat			L.Ankle.Med			R.Ankle.Med			L.Heel			R.Heel			L.Knee.Lat			R.Knee.Lat			L.Knee.Med			R.Knee.Med			L.Thigh.Upper			R.Thigh.Upper			L.ASIS			R.ASIS			V.Sacral			L.Acromium			R.Acromium			C7			L.Elbow			R.Elbow			L.Wrist.Lat			R.Wrist.Lat
		X1	Y1	Z1	X2	Y2	Z2	X3	Y3	Z3	X4	Y4	Z4	X5	Y5	Z5	X6	Y6	Z6	X7	Y7	Z7	X8	Y8	Z8	X9	Y9	Z9	X10	Y10	Z10	X11	Y11	Z11	X12	Y12	Z12	X13	Y13	Z13	X14	Y14	Z14	X15	Y15	Z15	X16	Y16	Z16	X17	Y17	Z17	X18	Y18	Z18	X19	Y19	Z19	X20	Y20	Z20	X21	Y21	Z21	X22	Y22	Z22	X23	Y23	Z23	X24	Y24	Z24

1	0	-1.5392836	0.037279004	-0.025851392	-1.0151998	0.088184371	0.11188158	-1.6853041	0.073846611	-0.05629638	-1.1643476	0.070865445	0.1364986	-1.6595286	0.087410209	0.037195594	-1.1541574	0.11022126	0.046258249	NaN	NaN	NaN	-1.2158206	0.032964251	0.080107129	-1.5457252	0.46788561	-0.10943951	-1.2163624	0.52677454	0.18190311	-1.545728	0.46776544	0.015904194	-1.217669	0.50735029	0.054687221	-1.4527861	0.88016616	-0.1516758	-1.4282381	0.87378027	0.21942064	-1.3501705	0.95395591	-0.094310829	-1.3472162	0.95765371	0.14471139	-1.5177354	1.015315	0.028535901	-1.3224678	1.4131771	-0.12594189	-1.3605972	1.4155641	0.20038621	-1.4066794	1.4638225	0.026956789	-1.4105623	1.0491392	-0.22206963	NaN	NaN	NaN	-1.1502289	0.96176596	-0.19415775	-1.4601878	0.83847017	0.28551366
2	0.004	-1.5392929	0.037219653	-0.025847735	-0.99789181	0.091535893	0.11245623	-1.6852156	0.074240486	-0.05611911	-1.1468917	0.071115303	0.13732598	-1.6648459	0.086471116	0.039712638	-1.1374361	0.11067365	0.047042599	NaN	NaN	NaN	-1.1974892	0.03187758	0.080770261	-1.5436152	0.46770651	-0.10958381	-1.2102807	0.52546771	0.1824489	-1.5442888	0.46753164	0.016131837	-1.2108614	0.5059877	0.055211197	-1.4469889	0.87881147	-0.1511569	-1.4229464	0.87205908	0.219615	-1.3441846	0.95254917	-0.094058731	-1.3415577	0.9561861	0.14501248	-1.5112827	1.0145532	0.030010188	-1.3166536	1.4118911	-0.12543209	-1.3549745	1.4139633	0.20101421	-1.4012871	1.4624035	0.027599903	-1.4032728	1.0476397	-0.22176197	NaN	NaN	NaN	-1.1423701	0.96291709	-0.19329396	-1.4553398	0.83679975	0.2861907
3	0.008	-1.5393062	0.037157868	-0.02583857	-0.98078892	0.095059554	0.11317837	-1.685113	0.074682613	-0.055913418	-1.1297071	0.071411107	0.13814967	-1.667944	0.086114322	0.041291506	-1.1210335	0.11113615	0.047814892	NaN	NaN	NaN	-1.179365	0.030929345	0.081495891	-1.5414744	0.46747059	-0.10970227	-1.2040299	0.52416842	0.18298918	-1.5426051	0.46730902	0.016288391	-1.2040701	0.50461288	0.055669374	-1.4411362	0.8774428	-0.150665	-1.4174077	0.87035188	0.21985755	-1.3381745	0.95110966	-0.093806401	-1.3357675	0.9546855	0.14528771	-1.505512	1.013233	0.030502154	-1.3108006	1.4105682	-0.12491487	-1.3492972	1.412317	0.20160264	-1.3955845	1.4610182	0.028972311	-1.3961002	1.0460485	-0.2214766	NaN	NaN	NaN	-1.1345437	0.96401219	-0.19240875	-1.4503222	0.83510143	0.28685071
4	0.012	-1.5393136	0.037087206	-0.025826094	-0.96402038	0.098826634	0.11402835	-1.6849824	0.075196936	-0.055672581	-1.112875	0.071818569	0.13897751	-1.6685689	0.086413897	0.041837201	-1.1050749	0.11165208	0.04857718	NaN	NaN	NaN	-1.1615662	0.030186288	0.08233375	-1.5392147	0.46715147	-0.10979035	-1.1975805	0.52285941	0.18352495	-1.5405731	0.46707795	0.016361678	-1.1972747	0.50320979	0.056052353	-1.4352411	0.87604976	-0.15023629	-1.4115332	0.86865559	0.2201483	-1.3321204	0.94962217	-0.093561105	-1.329801	0.95314162	0.14553759	-1.5003076	1.0112964	0.030028937	-1.3048887	1.4091901	-0.12439679	-1.3435448	1.4106034	0.20215078	-1.3895444	1.4596882	0.031124945	-1.389053	1.0443507	-0.22120367	NaN	NaN	NaN	-1.1267557	0.96501147	-0.19150449	-1.4450827	0.83336167	0.28749279
5	0.016	-1.5392996	0.037000797	-0.025817217	-0.9477502	0.10276334	0.1148791	-1.6848265	0.075770301	-0.055412611	-1.0963954	0.072381548	0.13980519	-1.6677689	0.087085946	0.041803229	-1.089526	0.11228268	0.049341213	NaN	NaN	NaN	-1.1441698	0.029640444	0.083295966	-1.5367658	0.46675717	-0.10985915	-1.1910159	0.52152038	0.18403899	-1.5381767	0.46681627	0.016382494	-1.1904602	0.50177662	0.056394292	-1.4293632	0.87463193	-0.14986701	-1.405383	0.86696055	0.22045452	-1.3260347	0.94809568	-0.093338337	-1.3236898	0.95157226	0.14577667	-1.495008	1.0091294	0.029478578	-1.2989287	1.4077603	-0.12388698	-1.3377237	1.4088381	0.20267599	-1.3833776	1.4583776	0.033418858	-1.3820843	1.0425961	-0.22093192	NaN	NaN	NaN	-1.1190124	0.96590417	-0.19060433	-1.4396662	0.83158254	0.28811849
6	0.02	-1.5392605	0.036902617	-0.025815432	-0.93210754	0.1067222	0.11565063	-1.6846679	0.076366118	-0.055158685	-1.0802812	0.073097626	0.14062209	-1.666451	0.087867474	0.041566064	-1.0743659	0.11304088	0.050104816	NaN	NaN	NaN	-1.127225	0.029259927	0.084356461	-1.5341039	0.46630769	-0.10991709	-1.1843786	0.52016788	0.18450537	-1.5354323	0.46651952	0.016393104	-1.1836265	0.50033102	0.056714067	-1.4235217	0.87319056	-0.14951066	-1.3990649	0.86525516	0.22074828	-1.3199366	0.94654346	-0.093148702	-1.3174715	0.94999742	0.1460188	-1.4890196	1.0071086	0.029843873	-1.2929325	1.406291	-0.12338882	-1.331845	1.4070557	0.20319415	-1.3772678	1.4570189	0.035232262	-1.3751577	1.040843	-0.22068126	NaN	NaN	NaN	-1.1113201	0.96670361	-0.18972836	-1.4341131	0.82977187	0.28872169
7	0.024	-1.5392067	0.036807656	-0.02581778	-0.91708622	0.11059331	0.11634053	-1.6845036	0.076961554	-0.054940624	-1.064546	0.073948337	0.14144034	-1.6650218	0.088641539	0.041280435	-1.0596441	0.11387849	0.050852885	NaN	NaN	NaN	-1.1107674	0.029024876	0.085483137	-1.5312035	0.46582116	-0.10995791	-1.1776429	0.51884752	0.1849273	-1.5324172	0.46618133	0.016440029	-1.1767795	0.498895	0.056999792	-1.4176911	0.87172472	-0.14914871	-1.3926711	0.86352872	0.22102139	-1.3138324	0.94496783	-0.092987987	-1.3111639	0.94842683	0.14627613	-1.4821333	1.0053452	0.031575369	-1.2869012	1.404794	-0.12290144	-1.3259186	1.4052793	0.20371756	-1.3712568	1.455593	0.036469839	-1.3682591	1.0391225	-0.2204705	NaN	NaN	NaN	-1.1036823	0.96742269	-0.18888047	-1.4284303	0.82793992	0.28929834
8	0.028	-1.539151	0.036726968	-0.025819185	-0.90260698	0.11433914	0.1169681	-1.6842813	0.077568731	-0.054790725	-1.049207	0.074905623	0.14227244	-1.6636058	0.089391718	0.040984176	-1.0453625	0.11474947	0.051582682	NaN	NaN	NaN	-1.0948116	0.028920691	0.086669663	-1.5280482	0.46530284	-0.10995726	-1.1707867	0.51758275	0.18533084	-1.5292379	0.46578797	0.016560444	-1.1699217	0.49747801	0.057247662	-1.411845	0.87023253	-0.1488051	-1.3862182	0.86177632	0.22128422	-1.307723	0.94336286	-0.092845306	-1.3047664	0.9468589	0.14655383	-1.4746537	1.0037573	0.034192487	-1.2808257	1.4032748	-0.12241441	-1.3199371	1.4035038	0.20425093	-1.3653081	1.4541199	0.037328397	-1.3613727	1.0374212	-0.22025801	NaN	NaN	NaN	-1.0960992	0.96805984	-0.1880535	-1.4226141	0.8260912	0.28985535
9	0.032	-1.5390988	0.036660176	-0.025816817	-0.8886224	0.11793493	0.11754432	-1.6839603	0.078213546	-0.054724198	-1.0343401	0.075904803	0.14308827	-1.6622234	0.090134711	0.040677645	-1.031487	0.11563597	0.05229864	NaN	NaN	NaN	-1.0793499	0.028918497	0.087949945	-1.5246434	0.4647409	-0.10989125	-1.163807	0.51636022	0.1857317	-1.5259287	0.46534269	0.016754949	-1.163049	0.496079	0.057481426	-1.4059783	0.86871218	-0.14849082	-1.3796499	0.85999807	0.22155377	-1.3016112	0.94172325	-0.092716957	-1.2982848	0.945281	0.14684487	-1.4672256	1.0022162	0.036585733	-1.2746952	1.401734	-0.12191337	-1.3138908	1.4017111	0.20479118	-1.3593801	1.4526098	0.037946678	-1.3544725	1.0357	-0.21995054	NaN	NaN	NaN	-1.088573	0.96860397	-0.18723858	-1.41666	0.82421993	0.29040587
10	0.036	-1.539046	0.036601641	-0.025809	-0.87513405	0.12132649	0.1180663	-1.6835709	0.078906964	-0.054723511	-1.0200341	0.076874022	0.1438398	-1.6608816	0.090878691	0.040361638	-1.0180386	0.11652336	0.052992974	NaN	NaN	NaN	-1.0643779	0.028975804	0.089364764	-1.5209837	0.46412717	-0.10976682	-1.1567063	0.51516394	0.18613415	-1.5224195	0.4648589	0.016983363	-1.1561599	0.49470111	0.057736317	-1.4001023	0.86716328	-0.14818864	-1.3729022	0.85820117	0.22183943	-1.2954949	0.94005122	-0.092606301	-1.2917409	0.94368243	0.14713238	-1.4602906	1.0006299	0.038028651	-1.2685105	1.4001745	-0.12139332	-1.3077873	1.3998978	0.20533352	-1.3534219	1.4510691	0.038451119	-1.3475434	1.0339359	-0.21949072	NaN	NaN	NaN	-1.0811058	0.96904654	-0.1864284	-1.4105669	0.82231965	0.29096102
11	0.04	-1.5389853	0.036547925	-0.025794696	-0.86216273	0.12445693	0.11851352	-1.6831751	0.079641801	-0.054757499	-1.0062613	0.077812013	0.1445185	-1.6596189	0.091617449	0.040048362	-1.0050799	0.11739077	0.053650973	NaN	NaN	NaN	-1.0499437	0.02906153	0.090859033	-1.5170754	0.46347195	-0.10962045	-1.1495036	0.51400258	0.18654619	-1.5186482	0.46432317	0.017202564	-1.1492524	0.49336019	0.058039812	-1.3942296	0.86559105	-0.14788068	-1.3659623	0.85640027	0.22213661	-1.289358	0.93836163	-0.092511541	-1.2851616	0.94206589	0.14739909	-1.4538233	0.99896682	0.038623913	-1.2622863	1.3986087	-0.12085304	-1.3016442	1.3980807	0.20587939	-1.3473445	1.4495271	0.039114907	-1.3406015	1.0321462	-0.21892175	NaN	NaN	NaN	-1.0736945	0.96938889	-0.18561839	-1.4043571	0.82039788	0.29152546
12	0.044	-1.5389139	0.036499192	-0.025776327	-0.84972648	0.12729591	0.1188595	-1.6827921	0.080411638	-0.054813138	-0.99280637	0.078822244	0.14517099	-1.658494	0.092344568	0.039751637	-0.99265779	0.11821661	0.054260412	NaN	NaN	NaN	-1.0361554	0.02917137	0.092251632	-1.5129618	0.46279092	-0.10948284	-1.1422209	0.51289942	0.18697989	-1.5146454	0.46371395	0.017403638	-1.1423054	0.49208188	0.058397262	-1.3883626	0.86401133	-0.14755815	-1.3588866	0.85460764	0.22243262	-1.2831748	0.93667986	-0.092419945	-1.2785708	0.94044675	0.14764421	-1.44757	0.99726247	0.038815025	-1.2560396	1.3970564	-0.12028691	-1.2954741	1.3962798	0.20643718	-1.3410603	1.448028	0.040241785	-1.3336855	1.0303754	-0.21835123	NaN	NaN	NaN	-1.066338	0.96964475	-0.18480644	-1.3980761	0.8184795	0.29209563
